<?xml version="1.0" standalone="no"?>
<!DOCTYPE svg PUBLIC "-//W3C//DTD SVG 20010904//EN"
 "http://www.w3.org/TR/2001/REC-SVG-20010904/DTD/svg10.dtd">
<svg version="1.0" xmlns="http://www.w3.org/2000/svg"
 width="1000.000000pt" height="1000.000000pt" viewBox="0 0 1000.000000 1000.000000"
 preserveAspectRatio="xMidYMid meet">
<metadata>
Created by potrace 1.14, written by Peter Selinger 2001-2017
</metadata>
<g transform="translate(0.000000,1000.000000) scale(0.100000,-0.100000)"
fill="#000000" stroke="none">
<path d="M0 8914 c0 -908 2 -1085 13 -1075 44 36 590 265 681 286 34 8 95 23
136 35 41 12 98 25 125 30 67 11 102 22 220 64 248 89 337 117 415 127 58 7
107 21 155 44 70 33 154 63 290 104 39 11 122 36 185 55 63 19 153 42 199 51
64 13 103 28 165 65 46 27 88 56 96 64 7 9 47 42 89 73 42 32 85 66 96 76 24
22 184 101 320 158 176 74 317 146 425 217 58 38 116 75 130 82 14 7 57 34 95
59 69 44 492 259 590 299 28 11 103 41 167 67 64 25 143 59 175 75 32 17 66
30 76 30 10 0 62 23 114 50 l95 50 -2526 0 -2526 0 0 -1086z"/>
<path d="M5704 9958 c28 -24 86 -81 130 -127 86 -90 86 -91 191 -191 67 -65
185 -210 185 -229 0 -5 3 -11 8 -13 14 -6 80 -115 135 -223 81 -157 151 -319
210 -482 48 -132 54 -141 75 -136 17 4 22 1 22 -16 0 -12 10 -37 23 -57 l22
-36 70 5 c78 6 184 23 230 38 17 6 116 13 221 16 l191 6 114 -45 c63 -25 151
-60 197 -78 46 -18 101 -46 123 -62 46 -33 50 -62 18 -148 -11 -30 -26 -98
-34 -150 -25 -164 -31 -192 -62 -305 -46 -162 -52 -202 -63 -400 -11 -190 -25
-256 -66 -310 -37 -49 -74 -137 -74 -177 0 -20 -5 -49 -12 -64 -11 -23 -10
-28 7 -41 17 -13 53 -14 231 -8 234 8 240 7 322 -60 40 -32 49 -35 110 -35
138 -1 243 -18 337 -56 l90 -36 115 7 c184 12 333 11 337 -1 2 -5 -15 -20 -37
-33 -34 -19 -58 -23 -152 -25 -62 -2 -169 -7 -238 -11 l-126 -8 -83 37 c-87
38 -190 55 -331 56 -61 0 -69 3 -135 47 l-70 48 -222 -3 c-154 -2 -229 0 -243
8 -20 11 -21 17 -15 83 10 104 20 137 63 198 38 53 72 138 72 178 0 11 4 40
10 63 5 24 14 122 19 218 10 161 14 185 50 295 27 86 42 154 51 240 9 87 20
140 41 193 16 41 29 80 29 87 0 28 -78 76 -202 125 -71 27 -131 50 -134 50 -3
0 -26 10 -52 22 -38 18 -69 23 -162 26 -134 5 -343 -13 -415 -34 -27 -8 -88
-17 -135 -21 -84 -6 -85 -5 -99 21 -8 14 -23 28 -33 32 -28 8 -41 35 -101 199
-159 432 -343 754 -537 940 -83 80 -72 69 -210 210 -58 59 -128 126 -157 147
-50 38 -55 40 -145 45 -103 5 -202 -9 -363 -51 -114 -31 -209 -74 -310 -142
-38 -26 -99 -63 -135 -82 -36 -19 -76 -42 -90 -52 -14 -9 -79 -48 -145 -85
-66 -37 -140 -82 -165 -100 -46 -33 -170 -105 -275 -160 -33 -17 -105 -55
-160 -85 -170 -90 -287 -148 -355 -173 -36 -14 -94 -36 -130 -50 -94 -36 -226
-100 -297 -144 -231 -144 -344 -203 -438 -233 -38 -12 -131 -50 -205 -85 -163
-77 -345 -140 -480 -165 -36 -7 -73 -17 -84 -22 -25 -13 -157 -44 -226 -53
-30 -4 -79 -20 -110 -35 -30 -15 -95 -42 -145 -60 -475 -168 -688 -264 -850
-379 -99 -70 -233 -151 -348 -207 l-97 -49 0 -133 0 -133 35 26 c19 15 37 36
41 47 3 11 8 17 11 14 7 -7 33 20 33 34 0 6 3 9 8 6 8 -5 37 14 43 29 7 21 45
51 58 47 8 -3 11 0 7 7 -7 10 6 16 27 12 5 -1 6 3 2 8 -3 6 4 15 15 21 11 6
20 8 20 4 0 -4 11 5 25 20 14 16 31 29 38 30 33 6 91 39 118 66 17 16 39 30
49 30 10 0 21 4 25 9 3 5 18 12 34 16 16 3 32 13 35 22 4 8 13 13 21 9 8 -3
15 -1 15 4 0 9 69 36 83 32 4 -1 7 3 7 8 0 6 7 10 15 10 8 0 15 5 15 11 0 5 5
7 12 3 7 -5 9 -2 6 8 -4 8 0 15 8 16 8 1 21 3 29 4 8 1 15 5 15 10 0 4 3 7 8
6 16 -4 52 14 46 24 -5 7 -2 8 6 3 7 -4 15 -3 19 3 3 6 18 13 33 16 37 6 70
25 63 37 -4 5 0 9 9 9 8 0 17 6 19 13 4 8 6 8 6 0 1 -8 8 -8 31 0 16 6 30 14
30 18 0 4 15 10 33 13 19 4 52 15 75 26 23 11 49 20 59 20 10 0 27 11 37 25
15 20 21 23 28 13 6 -10 12 -8 26 7 19 23 52 39 52 25 0 -4 13 -2 30 6 16 9
39 16 50 17 11 1 20 5 20 9 0 4 8 8 18 8 9 0 30 7 46 15 15 8 33 15 40 15 6 0
24 7 39 15 27 14 51 15 72 4 6 -3 15 -5 20 -4 42 6 165 45 182 58 7 5 17 6 23
2 5 -3 10 -2 10 3 0 10 7 11 102 13 34 0 58 5 58 12 0 6 3 7 7 4 3 -4 12 -2
20 4 7 6 23 9 35 6 13 -4 35 2 54 14 20 12 35 16 39 9 8 -13 120 1 156 20 10
6 31 10 48 10 17 0 31 3 31 8 0 4 66 8 148 9 172 1 193 3 215 22 20 16 23 36
5 25 -8 -4 -10 -3 -5 2 5 5 12 9 15 9 4 0 21 13 37 29 53 50 180 142 231 167
54 27 208 116 295 172 31 20 85 50 120 68 35 18 96 50 134 73 80 46 221 116
236 116 5 0 17 4 27 10 9 5 67 28 127 51 61 23 114 46 120 50 5 5 15 9 22 9 7
0 57 21 111 46 140 66 198 93 372 174 85 39 182 85 215 102 73 38 70 37 175
86 166 79 225 106 228 104 1 -1 18 7 39 18 20 10 40 17 45 14 5 -3 31 -1 58 6
65 15 81 5 118 -73 17 -35 42 -71 56 -81 30 -19 72 -82 91 -135 16 -47 52
-130 67 -156 7 -11 32 -58 56 -105 25 -47 59 -110 77 -140 18 -30 36 -66 40
-80 4 -14 34 -77 68 -140 33 -63 71 -135 84 -160 13 -25 40 -74 59 -110 82
-148 137 -266 174 -370 13 -36 27 -69 32 -74 4 -6 8 -16 8 -23 0 -8 -13 -3
-36 12 -39 27 -43 27 -144 25 -126 -3 -510 -46 -635 -72 -41 -8 -60 -7 -98 6
-26 9 -58 16 -71 16 -13 0 -38 5 -55 11 -39 14 -31 21 48 45 30 8 63 21 75 29
12 7 39 18 61 25 22 7 45 15 50 19 6 3 19 7 30 8 11 2 45 13 75 24 30 12 74
26 97 33 23 6 56 24 72 39 17 15 41 27 54 27 20 0 23 4 19 35 -5 39 -5 39 -32
25 -19 -10 -22 -7 -65 61 -142 223 -365 526 -428 580 -60 50 -94 61 -174 56
-83 -6 -126 -16 -135 -32 -4 -7 -19 -16 -32 -19 -14 -3 -37 -17 -52 -31 -15
-13 -30 -22 -35 -19 -5 2 -14 -4 -21 -16 -7 -11 -17 -20 -22 -20 -5 0 -24 -11
-42 -25 -18 -14 -35 -25 -39 -25 -3 0 -11 -5 -18 -10 -7 -6 -48 -36 -92 -67
-44 -32 -89 -67 -101 -78 -12 -11 -44 -40 -72 -64 -50 -43 -50 -44 -46 -93 7
-82 26 -103 159 -173 50 -26 119 -66 155 -88 119 -74 215 -139 197 -133 -11 3
-31 9 -45 12 -107 24 -222 68 -382 145 -102 50 -205 99 -230 110 -25 11 -54
25 -64 31 -27 14 -174 68 -213 78 -18 4 -47 17 -65 29 -85 53 -117 64 -156 53
-20 -6 -55 -14 -77 -17 -49 -8 -77 -21 -235 -108 -130 -71 -167 -97 -140 -97
11 -1 10 -5 -5 -16 -27 -20 -6 -33 47 -29 24 2 44 -2 53 -12 8 -8 15 -11 15
-7 0 3 6 1 14 -6 8 -6 13 -17 10 -23 -6 -16 57 -35 175 -52 124 -18 181 -36
245 -77 89 -59 121 -69 239 -78 140 -10 198 -25 267 -69 60 -39 70 -47 86 -76
6 -11 15 -20 20 -20 5 0 20 -8 34 -16 59 -37 131 -79 136 -79 6 0 175 -83 204
-100 109 -63 190 -69 320 -23 47 17 123 38 170 48 47 9 93 21 102 26 9 5 47
16 85 24 192 42 324 72 333 75 3 1 15 1 28 0 12 -1 22 3 22 8 0 6 8 8 19 5 10
-2 24 1 32 9 14 13 22 15 93 22 23 2 45 11 53 22 8 11 13 13 13 5 0 -15 51 -6
61 11 4 6 14 8 23 5 8 -3 18 -2 21 4 4 5 10 7 15 4 12 -7 41 5 35 15 -8 13 13
22 28 13 22 -13 39 -12 33 3 -3 8 -1 14 3 14 5 0 12 -6 14 -12 3 -7 6 -4 6 7
1 16 3 17 11 5 8 -12 11 -12 27 1 10 9 28 16 41 17 13 0 30 7 39 14 14 11 26
16 63 22 31 5 60 18 60 26 0 5 12 6 27 4 23 -4 66 9 83 26 24 24 51 41 71 45
28 5 91 36 100 49 7 9 41 -6 40 -17 -3 -24 1 -29 23 -23 15 4 26 1 29 -7 3 -7
6 -5 6 6 1 9 8 17 16 17 9 0 18 7 21 15 4 8 14 15 23 15 10 0 21 3 25 8 4 4
22 8 39 10 59 5 65 6 60 18 -3 9 5 10 36 2 23 -6 41 -16 41 -24 0 -7 9 -16 20
-19 16 -5 20 -13 17 -41 -3 -19 -1 -34 2 -34 3 0 5 -25 4 -55 -1 -51 1 -55 21
-55 12 0 30 -6 40 -13 35 -26 -7 -199 -64 -262 -18 -20 -29 -92 -35 -235 -7
-155 -22 -316 -36 -388 -6 -30 -9 -56 -6 -58 2 -2 -2 -35 -10 -72 -7 -37 -16
-80 -19 -97 -17 -101 -31 -170 -34 -170 -2 0 -6 -18 -15 -64 -3 -19 -9 -39
-12 -44 -4 -6 -8 -38 -10 -71 -2 -34 -5 -74 -6 -91 -1 -18 3 -30 11 -31 6 -1
15 -2 20 -3 4 -1 61 -2 127 -2 66 -1 149 -8 185 -15 36 -8 90 -16 120 -19 30
-2 75 -7 100 -10 48 -5 141 -14 228 -20 29 -3 57 -7 63 -11 6 -3 52 -8 102
-11 51 -3 126 -7 167 -9 128 -7 194 -6 223 5 16 6 38 11 50 11 12 0 33 6 47
13 21 11 31 10 62 -3 21 -8 38 -20 38 -26 0 -6 7 -17 15 -24 9 -7 14 -19 11
-26 -3 -7 -1 -16 3 -19 5 -3 5 -22 0 -42 -5 -21 -9 -57 -9 -80 0 -24 -4 -43
-9 -43 -8 0 -18 -29 -26 -70 0 -3 -6 -14 -12 -25 -6 -11 -12 -23 -12 -27 -7
-44 -15 -69 -22 -74 -5 -3 -9 -13 -9 -23 0 -21 -23 -73 -60 -138 -5 -10 -14
-29 -20 -43 -5 -14 -21 -43 -35 -65 -14 -22 -31 -51 -38 -65 -7 -14 -25 -44
-40 -67 -15 -24 -27 -46 -27 -49 0 -4 -11 -22 -25 -40 -14 -18 -25 -37 -25
-43 0 -5 -6 -16 -12 -23 -29 -31 -80 -132 -92 -180 -3 -16 -11 -28 -16 -28 -6
0 -10 -6 -10 -12 0 -7 -7 -26 -15 -41 -8 -15 -24 -63 -36 -107 -15 -57 -31
-90 -57 -121 -21 -24 -36 -45 -36 -49 1 -3 -3 -16 -8 -30 -5 -14 -9 -27 -8
-29 1 -2 -2 -7 -7 -10 -5 -3 -22 -31 -37 -62 -15 -31 -42 -71 -61 -89 -19 -19
-35 -42 -35 -52 0 -10 -5 -18 -10 -18 -6 0 -14 -8 -17 -18 -6 -14 -54 -82 -93
-129 -6 -7 -10 -20 -10 -31 0 -10 -6 -24 -12 -31 -11 -10 -10 -12 2 -9 38 8
-4 -70 -65 -122 -57 -48 -66 -61 -60 -80 6 -20 -23 -63 -37 -54 -5 3 -7 1 -6
-3 3 -9 -146 -169 -231 -247 -24 -23 -57 -61 -74 -86 -17 -25 -36 -52 -44 -60
-15 -16 -67 -87 -96 -129 -24 -36 -47 -87 -47 -105 0 -15 -23 -92 -39 -131 -5
-11 -23 -53 -40 -94 -17 -40 -31 -79 -31 -87 0 -7 -6 -19 -13 -26 -7 -7 -24
-40 -37 -73 -25 -63 -108 -228 -154 -305 -14 -25 -42 -76 -62 -115 -20 -38
-45 -80 -56 -91 -10 -12 -20 -32 -21 -44 -1 -13 -14 -32 -29 -43 -16 -12 -28
-27 -28 -34 0 -7 -47 -60 -105 -119 -86 -88 -107 -105 -119 -95 -12 10 -33 -6
-118 -87 -57 -54 -132 -125 -168 -158 -35 -32 -80 -75 -100 -94 -19 -19 -55
-53 -80 -75 l-45 -39 -12 119 -11 120 31 28 c18 16 83 67 144 114 119 90 198
168 234 233 14 25 41 51 68 67 150 86 219 162 252 277 10 34 27 88 38 121 11
33 31 94 44 135 14 41 36 107 50 145 27 72 38 205 17 205 -5 0 -7 14 -3 33 l6
32 -32 -39 c-17 -21 -31 -42 -31 -46 0 -5 -21 -20 -47 -36 -27 -15 -61 -40
-78 -55 -46 -44 -67 -60 -156 -124 -95 -69 -198 -158 -319 -275 -47 -45 -114
-101 -150 -124 -120 -79 -152 -98 -156 -94 -2 2 -6 38 -10 79 -3 41 -8 81 -11
89 -4 8 -7 40 -9 70 -1 30 -7 79 -13 109 -6 29 -11 76 -11 102 0 34 -4 48 -12
47 -8 -2 -11 4 -8 12 2 8 3 53 1 100 -2 73 2 98 28 175 17 49 31 100 31 113 0
12 13 49 29 80 17 31 41 103 55 159 15 56 31 114 37 130 6 15 16 46 20 68 5
22 11 45 13 50 4 14 15 73 21 120 3 22 12 72 20 110 7 39 17 90 20 115 4 24 8
47 10 50 6 9 34 309 40 432 6 110 11 153 16 153 1 0 3 52 5 115 7 247 10 284
34 330 31 60 39 217 17 304 -14 53 -14 61 0 83 12 18 13 27 5 35 -8 8 -13 6
-18 -8 -3 -10 -27 -61 -51 -111 -41 -84 -51 -96 -97 -122 -50 -30 -72 -26 -43
7 8 9 18 28 22 40 4 13 21 52 38 85 34 68 50 188 28 210 -6 6 -11 27 -11 47 0
19 -12 62 -25 95 -14 33 -25 66 -25 73 0 29 -105 164 -205 264 -58 58 -118
128 -133 155 -42 76 -113 168 -151 194 -32 23 -44 24 -204 27 -139 3 -172 1
-185 -12 -34 -30 -135 -76 -167 -76 -44 0 -85 35 -126 108 -17 31 -57 89 -88
127 -31 39 -73 96 -95 127 -52 77 -154 153 -305 227 -69 33 -129 65 -135 71
-5 5 -17 10 -26 10 -8 0 -40 15 -70 33 -30 18 -89 48 -130 66 -41 19 -83 43
-93 53 -18 18 -18 20 -2 38 16 18 16 20 1 26 -9 3 -31 0 -49 -7 -24 -11 -97
-14 -292 -15 -143 0 -271 -3 -285 -7 -14 -3 -98 -13 -188 -22 -89 -8 -186 -20
-215 -26 -92 -19 -131 -27 -197 -39 -64 -11 -195 -58 -295 -105 -97 -46 -141
-65 -156 -65 -8 -1 -32 -8 -54 -16 -22 -8 -78 -26 -125 -40 -47 -14 -98 -31
-115 -38 -29 -13 -58 -22 -220 -66 -144 -40 -288 -92 -390 -141 -222 -107
-404 -291 -381 -384 5 -21 0 -29 -35 -51 l-41 -26 4 -116 c4 -93 11 -134 33
-197 27 -80 49 -128 66 -149 6 -6 32 -44 60 -83 44 -64 142 -153 217 -198 10
-5 49 -30 87 -55 126 -81 226 -123 397 -165 57 -14 114 -30 128 -36 14 -6 45
-17 70 -24 81 -23 218 -74 287 -106 95 -44 94 -44 357 -96 26 -5 27 -4 17 15
-18 33 -14 40 37 72 54 34 54 34 98 -52 14 -27 31 -48 40 -48 11 0 14 5 9 18
-4 9 -9 31 -12 47 -7 41 48 112 116 149 50 27 53 27 71 11 11 -10 22 -26 25
-36 4 -11 13 -19 20 -19 8 0 35 -33 61 -72 25 -40 48 -75 50 -77 2 -3 26 -4
53 -2 40 1 52 -2 64 -19 26 -37 176 -128 265 -160 48 -17 121 -38 162 -46 85
-16 299 -23 345 -11 17 4 48 10 69 12 21 3 43 8 47 11 5 2 38 7 75 9 73 5 154
38 252 103 31 21 72 48 90 58 47 29 198 179 248 247 94 127 110 138 163 111
31 -15 36 -15 68 0 l34 16 93 -75 c62 -50 115 -83 157 -99 35 -13 67 -23 71
-22 3 0 10 -2 14 -6 4 -5 2 -8 -4 -8 -7 0 -12 -4 -12 -10 0 -14 96 -40 147
-40 54 0 49 -11 -17 -45 -53 -27 -92 -30 -155 -14 -22 6 -49 13 -61 16 -12 2
-28 -2 -37 -11 -8 -9 -18 -16 -21 -16 -2 0 -33 -20 -68 -45 -35 -24 -89 -59
-120 -77 -32 -18 -58 -36 -58 -40 0 -5 -7 -8 -15 -8 -8 0 -15 -3 -15 -7 0 -5
-36 -30 -80 -58 l-80 -50 38 -10 c48 -14 47 -34 -4 -62 -39 -22 -45 -22 -95
-10 l-53 14 -70 -40 c-146 -84 -177 -100 -406 -213 -340 -168 -509 -250 -555
-265 -22 -8 -46 -20 -53 -27 -13 -12 -34 -16 -61 -13 -7 2 -10 -2 -7 -7 7 -11
-49 -34 -58 -25 -3 4 -6 1 -6 -5 0 -6 -15 -13 -32 -17 -18 -4 -53 -18 -77 -31
-24 -13 -47 -24 -52 -24 -5 0 -34 -12 -66 -27 -32 -14 -62 -25 -66 -24 -5 1
-20 -8 -34 -19 -14 -11 -29 -17 -34 -14 -5 3 -9 -1 -9 -8 0 -11 -2 -10 -9 0
-7 11 -9 11 -14 -2 -4 -9 -12 -16 -19 -16 -7 0 -30 -9 -51 -20 -21 -11 -66
-31 -100 -44 l-63 -24 -19 32 c-35 58 -65 117 -65 130 0 7 -9 24 -19 38 -11
13 -23 35 -26 49 -3 13 -12 32 -20 43 -13 17 -17 16 -65 -25 -47 -40 -51 -46
-45 -76 7 -37 42 -116 68 -153 9 -13 17 -32 17 -42 0 -10 9 -26 20 -35 22 -19
11 -43 -21 -43 -11 0 -19 -5 -19 -11 0 -5 -4 -8 -9 -5 -10 6 -67 -20 -76 -35
-7 -10 -74 -42 -115 -54 -14 -4 -52 -20 -85 -35 -51 -23 -110 -48 -270 -115
-16 -7 -48 -18 -70 -25 -22 -7 -49 -19 -60 -26 -17 -11 -269 -114 -279 -114
-2 0 -1 11 2 25 2 14 8 22 13 19 9 -5 10 -2 14 46 2 14 8 39 15 55 7 17 14 37
15 45 2 8 10 35 19 59 9 24 16 50 16 59 0 8 9 33 19 56 39 84 56 131 53 143
-2 7 2 13 7 13 6 0 8 7 5 15 -4 8 -1 15 6 15 6 0 9 4 6 9 -8 13 4 42 15 35 5
-3 6 2 3 10 -3 9 -2 16 3 16 6 0 18 19 29 43 10 23 22 47 27 52 4 6 36 49 70
97 144 201 172 240 181 245 5 4 7 2 4 -3 -3 -5 -25 -43 -49 -84 -24 -41 -60
-109 -79 -150 -19 -41 -40 -82 -46 -90 -6 -8 -15 -26 -19 -40 -4 -14 -16 -36
-25 -50 -41 -59 -130 -249 -141 -300 -6 -30 -15 -75 -20 -99 -6 -24 -8 -46 -5
-48 3 -3 27 7 54 22 51 28 58 41 77 159 6 35 15 60 53 146 6 14 29 57 51 95
22 39 73 139 115 222 41 84 91 177 111 205 19 29 35 57 35 62 0 12 50 66 61
66 4 0 10 -12 14 -27 4 -16 12 -34 18 -41 6 -8 12 -22 14 -32 1 -10 14 -40 28
-66 14 -26 25 -53 25 -61 0 -7 7 -16 15 -19 8 -4 13 -9 11 -13 -2 -3 11 -39
28 -79 l32 -72 23 24 c13 13 36 30 52 36 16 7 29 14 29 17 0 2 -12 30 -26 61
-15 31 -37 89 -51 127 -13 39 -39 102 -58 140 -18 39 -38 89 -45 113 -11 41
-10 44 19 71 47 44 122 88 161 95 24 4 51 22 83 53 26 25 47 50 47 55 0 11
-25 10 -54 -3 -20 -9 -29 -9 -42 2 -11 9 -53 14 -137 16 -67 1 -133 4 -147 6
-145 25 -226 37 -282 42 -37 3 -121 19 -185 35 -65 16 -156 38 -203 49 -101
23 -234 73 -345 129 -293 147 -370 190 -516 287 -241 160 -383 268 -479 364
-141 142 -270 281 -270 292 0 6 -4 7 -10 4 -5 -3 -10 0 -10 7 0 7 -18 31 -40
52 -22 22 -40 45 -40 53 0 7 -4 13 -10 13 -7 0 -10 -380 -10 -1119 l0 -1119
45 -22 c24 -12 74 -26 111 -31 36 -5 70 -11 74 -14 4 -2 67 -14 141 -25 128
-21 155 -21 586 -15 530 9 503 16 373 -99 -108 -96 -134 -163 -146 -371 -4
-66 -11 -126 -17 -133 -12 -15 -97 -66 -101 -61 -7 10 15 263 27 316 21 86 63
152 140 218 37 31 67 60 67 62 0 3 -201 2 -447 -2 -392 -6 -461 -5 -553 10
-58 9 -121 21 -141 26 -19 5 -63 13 -97 17 l-62 9 0 -1006 0 -1007 21 -14 c12
-8 46 -33 75 -55 30 -22 79 -58 110 -80 30 -22 66 -49 78 -60 12 -11 28 -21
36 -23 8 -2 22 -10 30 -17 8 -8 25 -23 38 -35 12 -11 26 -20 31 -20 5 0 11 -3
13 -8 3 -9 196 -137 248 -165 44 -24 77 -47 68 -47 -6 0 -69 27 -233 99 -33
14 -152 71 -265 127 -113 56 -215 104 -227 108 l-23 7 0 -494 c0 -387 3 -496
13 -500 10 -4 10 -6 0 -6 -9 -1 -13 -19 -13 -58 1 -58 1 -58 48 -88 114 -72
206 -111 307 -128 55 -9 138 -23 185 -31 149 -26 183 -35 260 -75 41 -21 93
-41 115 -45 22 -4 67 -18 100 -30 33 -12 80 -30 105 -39 25 -8 81 -30 125 -47
129 -52 246 -90 274 -90 14 0 51 -7 81 -16 30 -9 80 -21 110 -28 l55 -12 -43
-27 c-49 -32 -96 -44 -114 -30 -7 6 -53 18 -103 27 -49 10 -110 22 -134 27
-50 11 -193 65 -292 109 -36 17 -75 30 -86 30 -11 0 -47 12 -79 26 -53 23 -74
26 -214 30 -85 3 -173 9 -195 14 -22 5 -64 12 -92 15 -29 3 -110 23 -180 44
-71 22 -152 42 -180 45 l-53 7 0 -286 0 -285 5000 0 5000 0 0 5000 0 5000
-2172 0 -2173 0 49 -42z m-1864 -1388 c-66 -15 -115 -22 -109 -16 8 8 86 24
119 24 18 0 15 -2 -10 -8z m1332 -514 c21 -4 62 -18 90 -31 29 -14 67 -25 83
-26 l30 0 -32 -16 c-29 -15 -34 -14 -80 7 -90 41 -155 75 -160 83 -3 5 3 5 13
-1 11 -5 36 -12 56 -16z m-1172 -1053 c0 -5 -22 -20 -49 -35 -35 -20 -63 -28
-99 -28 -63 0 -183 -25 -225 -46 -71 -37 -176 -115 -237 -178 -63 -65 -131
-111 -152 -104 -5 2 23 38 63 79 121 125 351 264 494 300 71 18 205 25 205 12z
m240 -443 c0 -5 -13 -16 -30 -25 -16 -9 -30 -17 -30 -20 0 -2 14 -2 30 0 52 6
34 -20 -41 -60 -40 -21 -74 -33 -78 -28 -3 5 -14 12 -23 16 -38 14 -11 40 97
96 65 33 75 36 75 21z m-1060 -16 c0 -8 -5 -24 -10 -35 -10 -17 -18 -60 -51
-259 -12 -70 -8 -168 9 -240 6 -25 21 -99 33 -165 29 -159 66 -236 156 -319
37 -34 82 -76 101 -93 19 -18 48 -43 64 -55 16 -13 51 -40 76 -60 51 -41 101
-68 127 -68 9 0 25 -5 35 -10 28 -15 241 -40 343 -40 88 0 89 0 205 59 64 32
146 73 182 90 80 37 165 98 179 129 6 12 27 32 46 43 19 12 33 24 30 29 -2 4
7 8 20 8 30 0 30 1 5 -40 -26 -44 -181 -162 -267 -203 -17 -8 -41 -26 -52 -41
-12 -15 -21 -23 -21 -19 0 4 -11 0 -25 -9 -36 -24 -42 -19 -10 8 l29 25 -35
-12 c-18 -7 -63 -28 -99 -47 -164 -87 -174 -90 -273 -90 -108 0 -329 25 -356
40 -11 5 -27 10 -37 10 -21 0 -98 38 -123 61 -10 10 -22 15 -27 11 -4 -4 -4
-2 0 5 4 7 -3 17 -16 24 -13 7 -39 27 -58 45 -19 18 -46 42 -60 54 -75 64
-160 155 -183 198 -28 52 -68 197 -89 327 -17 107 -15 349 5 450 23 115 39
148 89 178 51 31 58 32 58 11z m1490 -19 c0 -8 -4 -15 -9 -15 -5 0 -11 7 -15
15 -3 9 0 15 9 15 8 0 15 -7 15 -15z m4520 4 c0 -6 -5 -19 -10 -30 -6 -10 -20
-72 -31 -137 -16 -87 -29 -131 -52 -172 -37 -65 -90 -185 -113 -255 -9 -27
-25 -62 -35 -76 -10 -15 -31 -64 -46 -110 -14 -46 -36 -97 -48 -114 -26 -36
-65 -151 -65 -190 0 -15 -9 -42 -19 -59 -11 -17 -24 -51 -31 -76 -27 -105 -46
-158 -72 -200 -54 -88 -173 -344 -198 -425 -63 -206 -184 -386 -435 -650 -42
-44 -115 -138 -162 -210 -74 -110 -186 -264 -304 -415 -15 -19 -38 -53 -50
-75 -48 -83 -90 -161 -108 -201 -11 -23 -24 -45 -29 -48 -6 -3 -14 -21 -18
-39 -3 -17 -13 -41 -21 -52 -7 -11 -18 -38 -24 -60 -6 -22 -18 -56 -26 -75 -8
-19 -19 -44 -24 -55 -4 -11 -17 -50 -27 -86 l-19 -65 41 40 c47 45 112 83 124
71 4 -4 -41 -53 -100 -109 -89 -85 -109 -109 -123 -152 -9 -28 -26 -66 -38
-84 -12 -18 -27 -41 -32 -49 -6 -9 -35 -54 -66 -101 -31 -47 -62 -96 -68 -108
-7 -13 -43 -58 -80 -100 -37 -43 -79 -96 -94 -119 -77 -122 -196 -263 -335
-397 -41 -39 -101 -98 -135 -131 -177 -172 -412 -313 -672 -401 -38 -13 -99
-34 -135 -48 -36 -13 -101 -29 -145 -36 -113 -17 -213 -51 -342 -117 -485
-251 -600 -305 -690 -329 -103 -27 -152 -48 -265 -117 -42 -25 -105 -56 -139
-67 -35 -12 -74 -27 -89 -34 -33 -17 -90 -28 -90 -17 0 11 113 71 134 71 31 0
194 76 184 85 -4 4 -127 -22 -157 -34 -23 -9 -86 -26 -281 -76 -36 -9 -119
-21 -185 -26 -66 -5 -163 -14 -215 -20 -71 -9 -129 -9 -225 0 -98 8 -159 8
-250 -1 -66 -7 -181 -13 -255 -13 -119 0 -141 -3 -184 -23 -37 -18 -85 -27
-195 -38 -80 -8 -214 -22 -297 -30 -210 -23 -237 -11 -115 52 48 25 67 28 190
34 75 3 146 11 158 18 29 16 36 15 29 -4 -6 -14 1 -16 51 -10 32 4 105 21 163
38 96 28 119 31 270 33 91 1 215 7 275 14 82 8 145 8 247 0 105 -9 160 -9 230
0 51 7 149 16 218 21 69 5 148 16 175 24 44 13 259 71 415 112 68 18 123 47
270 142 63 41 144 94 180 117 167 108 404 215 476 215 68 0 288 70 499 159
176 74 281 136 390 232 64 56 170 128 272 185 53 30 113 88 113 110 0 4 7 15
16 25 8 9 34 66 57 125 50 128 107 225 161 274 21 19 57 55 80 78 107 113 148
152 225 215 50 42 87 80 93 98 11 32 81 84 109 82 17 -2 25 17 77 172 60 180
105 292 132 335 6 8 14 26 20 40 5 14 16 36 24 50 9 14 27 48 41 75 28 56 98
167 133 211 139 176 212 275 264 359 71 114 82 128 194 245 129 136 186 207
273 339 66 99 89 145 117 230 20 58 46 129 60 159 13 29 24 54 24 57 0 11 104
215 124 242 12 17 33 64 45 105 42 136 55 173 68 193 7 11 13 34 13 52 0 34
43 151 71 193 9 14 22 43 28 65 20 63 54 149 66 165 7 8 29 60 49 115 21 55
45 114 54 131 9 17 29 53 43 80 15 27 32 81 38 119 6 39 21 103 33 144 20 68
25 76 67 102 48 31 61 35 61 18z m-4874 -86 c-35 -30 -58 -30 -26 0 14 13 31
24 39 24 8 0 3 -10 -13 -24z m217 -65 c36 -39 35 -57 -2 -19 -15 16 -38 32
-50 36 -28 9 -27 25 2 18 12 -3 34 -19 50 -35z m-191 -135 c-37 -28 -79 -108
-89 -166 l-6 -40 34 25 c47 36 98 60 109 53 6 -3 10 -38 10 -76 l0 -70 29 16
c42 21 61 11 61 -36 0 -31 -6 -42 -32 -62 -18 -14 -43 -30 -56 -36 -26 -14
-50 -5 -33 12 10 10 16 57 7 57 -2 0 -20 -7 -41 -16 -20 -8 -40 -13 -43 -10
-3 3 -4 26 -4 51 1 25 -1 45 -4 45 -3 0 -35 -16 -70 -36 -56 -31 -65 -34 -70
-19 -11 27 3 134 21 161 9 14 15 28 12 30 -2 2 -25 -8 -51 -22 -26 -14 -50
-23 -54 -19 -19 19 212 198 231 179 3 -3 18 1 34 9 40 22 43 0 5 -30z m177
-67 c32 -68 -10 -71 -45 -3 -9 16 -13 35 -10 43 9 23 35 4 55 -40z m98 -118
c-3 -8 -6 -5 -6 6 -1 11 2 17 5 13 3 -3 4 -12 1 -19z m739 -41 l27 -24 -51
-29 c-41 -23 -52 -34 -54 -58 -3 -31 -11 -36 -161 -108 l-48 -23 -25 28 c-13
15 -24 32 -24 36 0 4 18 17 40 30 22 12 44 31 50 41 16 31 170 130 202 130 9
0 29 -11 44 -23z m-736 -3 c0 -8 -5 -12 -10 -9 -6 4 -8 11 -5 16 9 14 15 11
15 -7z m21 -194 c27 0 2 -33 -47 -61 -58 -33 -73 -30 -74 13 0 23 104 83 108
63 2 -8 8 -15 13 -15z m762 -554 c12 1 17 -2 13 -11 -3 -10 0 -12 11 -8 12 5
14 3 8 -7 -6 -10 -1 -12 23 -8 17 2 29 1 26 -4 -3 -4 0 -17 6 -29 l12 -21 26
25 c25 24 29 25 55 11 25 -14 27 -13 27 6 0 26 11 25 38 -3 18 -19 21 -34 21
-102 0 -73 -11 -190 -22 -240 -2 -11 -8 -38 -12 -60 -7 -39 -39 -158 -89 -325
-14 -47 -44 -137 -67 -200 -22 -63 -47 -131 -53 -150 -11 -30 -18 -35 -46 -37
-30 -1 -106 28 -120 46 -4 6 -112 55 -175 81 -50 20 -134 42 -180 47 l-50 5
-21 -44 c-12 -23 -26 -54 -32 -68 -5 -14 -22 -54 -37 -90 -15 -36 -45 -107
-66 -159 -21 -51 -42 -98 -47 -105 -5 -6 -14 -25 -20 -43 -14 -43 -65 -113
-137 -189 l-60 -63 -40 10 c-49 12 -47 12 -115 33 -30 10 -66 19 -79 22 -13 3
-44 15 -70 28 -46 23 -99 41 -113 38 -5 -1 -8 2 -8 6 0 4 -15 7 -32 7 -38 -1
-122 27 -147 48 -62 54 -203 2 -253 -95 -19 -35 -57 -125 -58 -133 0 -3 -11
-27 -25 -55 -14 -27 -32 -71 -41 -97 -8 -26 -17 -55 -20 -63 -3 -8 -5 -17 -4
-19 1 -2 -2 -7 -7 -10 -5 -3 -38 -70 -73 -148 l-65 -142 -40 6 c-22 3 -44 9
-50 13 -14 11 -116 51 -140 55 -11 2 -31 7 -45 13 -14 5 -27 10 -30 10 -3 0
-17 5 -31 11 -15 5 -43 13 -63 16 -20 4 -39 11 -42 16 -3 5 -10 7 -15 3 -5 -3
-16 0 -24 6 -8 7 -15 9 -15 5 0 -4 -6 -3 -12 3 -14 11 -147 53 -188 59 -14 2
-26 8 -28 14 -2 5 -13 9 -25 9 -12 0 -28 4 -36 9 -8 5 -23 5 -35 1 -12 -5 -32
-11 -46 -14 -37 -8 -99 -111 -98 -164 0 -23 -9 -57 -21 -79 -11 -21 -32 -72
-45 -113 -25 -77 -42 -125 -60 -173 -15 -38 -69 -62 -133 -59 -29 1 -107 13
-175 26 -68 13 -140 27 -160 30 -39 7 -337 152 -350 170 -5 7 -8 7 -8 -1 0 -8
-8 -5 -20 7 -22 22 -37 24 -72 11 -43 -16 -188 -333 -217 -473 -9 -41 -19 -61
-36 -72 -28 -18 -61 -21 -70 -6 -4 6 -10 8 -15 5 -5 -3 -11 -1 -14 4 -4 5 -29
17 -56 26 -28 9 -50 20 -50 24 0 4 -18 14 -40 21 -22 7 -40 17 -40 22 0 4 -3
7 -7 6 -13 -3 -63 24 -63 34 0 4 -7 8 -15 8 -7 0 -19 8 -24 17 -6 10 -11 14
-11 9 0 -5 -12 1 -26 15 -14 13 -28 23 -30 21 -22 -13 -234 182 -289 266 -15
23 -31 42 -35 42 -4 0 -7 20 -7 44 0 24 -3 49 -7 55 -17 27 22 58 92 76 64 15
72 15 101 1 40 -21 169 -46 204 -39 16 3 65 41 120 94 87 81 147 118 147 90 0
-7 12 -3 27 9 27 19 131 62 333 136 52 19 129 48 170 65 41 17 86 30 100 30
14 -1 73 -5 133 -9 59 -4 117 -4 128 0 19 7 20 5 15 -16 -4 -17 -1 -26 11 -30
11 -5 13 -10 6 -17 -6 -6 -19 -6 -37 1 -15 5 -46 10 -70 10 -23 0 -67 7 -98
15 -50 13 -60 13 -87 -1 -42 -21 -41 -51 2 -68 95 -40 295 -39 340 2 22 19
107 186 107 209 0 10 -6 12 -21 8 -17 -6 -20 -4 -13 6 28 46 -32 45 -74 0 -20
-21 -23 -22 -17 -6 4 11 9 27 12 36 3 9 50 33 113 58 60 23 169 70 242 105 73
34 149 70 168 79 19 8 64 29 99 46 56 26 67 29 80 17 23 -20 111 -36 200 -36
88 0 118 15 141 70 7 16 16 30 21 30 5 0 9 10 9 22 0 57 21 83 84 108 163 62
434 183 490 219 110 69 267 144 279 132 6 -6 19 -11 29 -11 29 0 21 -15 -17
-29 -39 -14 -44 -30 -17 -54 20 -18 102 -48 113 -41 4 2 9 0 11 -6 3 -11 42
-15 108 -11 33 2 40 4 26 10 -19 7 -19 8 2 13 14 4 22 2 22 -7 0 -18 39 -26
57 -12 35 28 47 49 69 114 37 112 50 144 68 164 19 23 21 43 4 34 -7 -4 -5 0
5 8 25 21 21 30 -6 12 -13 -8 -26 -13 -29 -10 -3 3 -11 -2 -19 -12 -8 -9 -9
-14 -2 -10 6 4 15 2 19 -4 4 -7 3 -9 -3 -6 -12 8 -40 -11 -56 -39 -46 -80 -63
-114 -77 -154 -14 -41 -17 -45 -45 -42 -16 2 -32 6 -34 8 -3 2 11 19 30 37 19
18 40 44 47 57 7 14 23 40 36 58 14 18 27 50 31 72 6 38 11 41 118 101 62 35
135 75 162 89 28 15 82 47 122 71 39 24 116 71 170 103 54 32 117 72 140 87
37 25 47 27 70 18 16 -6 44 -12 63 -13 19 -2 58 -6 85 -10 l50 -7 27 43 c26
41 52 155 42 181 -2 7 11 21 30 31 19 10 43 26 53 35 37 33 68 49 83 41 8 -4
23 -6 33 -4z m-1536 -932 c-3 -3 -12 -4 -19 -1 -8 3 -5 6 6 6 11 1 17 -2 13
-5z m103 -110 c0 -2 -7 -4 -15 -4 -8 0 -15 4 -15 10 0 5 7 7 15 4 8 -4 15 -8
15 -10z m37 0 c-3 -3 -12 -4 -19 -1 -8 3 -5 6 6 6 11 1 17 -2 13 -5z m1050
-746 c15 -7 36 -20 46 -30 10 -10 32 -18 50 -18 33 0 112 -25 242 -75 39 -15
91 -34 118 -43 l47 -16 0 -68 c0 -58 -4 -75 -27 -111 -16 -23 -31 -43 -35 -45
-5 -2 -8 -8 -8 -14 0 -11 -60 -99 -75 -110 -16 -12 -28 -9 -22 6 3 8 1 17 -6
20 -7 2 -2 5 11 5 15 1 22 7 22 20 0 26 -28 34 -120 36 -41 1 -85 7 -98 14
-19 10 -27 9 -51 -9 -16 -11 -34 -20 -41 -20 -6 0 -8 -4 -5 -10 3 -5 2 -10 -2
-10 -5 0 -17 -15 -27 -34 -15 -28 -19 -59 -20 -166 -1 -99 2 -133 12 -139 17
-10 59 8 68 29 3 8 8 74 11 145 6 155 15 185 58 185 25 0 31 -4 33 -25 1 -16
-3 -25 -12 -25 -14 0 -43 -65 -38 -84 2 -5 0 -16 -4 -25 -4 -9 -6 -31 -5 -49
2 -18 -5 -56 -15 -85 -10 -28 -18 -59 -18 -67 -1 -19 -40 -70 -53 -70 -5 0
-26 -18 -46 -41 -21 -22 -37 -37 -37 -32 0 4 -16 -9 -35 -31 -19 -21 -35 -34
-35 -30 0 5 -16 -8 -34 -28 -19 -21 -38 -38 -44 -38 -5 0 -29 -22 -53 -50 -24
-27 -49 -50 -56 -50 -7 0 -17 -9 -23 -20 -6 -11 -15 -18 -20 -15 -12 7 -41
-36 -33 -49 4 -6 0 -5 -9 2 -13 10 -17 10 -22 -3 -3 -9 -10 -13 -16 -10 -5 3
-10 2 -10 -3 0 -22 -36 -21 -84 2 -61 30 -74 33 -147 41 -34 3 -70 0 -93 -8
-41 -14 -40 -13 -89 -154 -12 -35 -26 -63 -30 -63 -10 0 -2 94 14 177 6 29 8
62 4 73 -3 11 -2 20 4 20 5 0 11 9 13 21 3 20 4 20 23 2 11 -10 40 -19 64 -21
25 -2 66 -12 93 -23 26 -10 48 -16 48 -14 0 3 16 -1 35 -9 20 -9 37 -11 40 -5
4 5 17 9 31 9 15 0 24 6 24 16 0 12 6 15 24 10 28 -7 56 1 56 16 0 6 -9 8 -20
5 -10 -3 -24 1 -30 8 -6 8 -18 11 -26 8 -8 -3 -14 -1 -14 4 0 5 -6 10 -12 11
-43 3 -126 19 -137 26 -5 3 -26 8 -47 11 -22 4 -46 8 -54 11 -21 5 -129 -23
-157 -42 -13 -8 -23 -25 -23 -37 0 -13 -8 -32 -19 -43 -16 -17 -20 -44 -26
-172 l-7 -152 23 -8 c18 -7 27 -4 46 17 l22 26 1 -35 c0 -38 -20 -62 -61 -75
-13 -4 -37 -18 -52 -31 -16 -13 -33 -22 -38 -18 -5 3 -12 -2 -15 -10 -3 -9
-10 -16 -15 -16 -5 0 -55 -22 -110 -50 -55 -28 -104 -50 -109 -50 -4 0 -25 -8
-46 -17 -22 -9 -48 -18 -59 -20 -10 -2 -22 -7 -25 -11 -6 -8 -10 -9 -115 -33
-87 -20 -151 -14 -168 16 -7 13 -47 35 -67 37 -3 0 -17 9 -32 19 -19 14 -29
16 -34 8 -5 -8 -12 -4 -24 11 -11 14 -29 23 -48 24 -16 0 -28 4 -26 8 2 3 -11
11 -30 18 -44 14 -106 -8 -106 -39 0 -11 -4 -22 -9 -25 -10 -6 -51 -87 -51
-100 0 -4 -9 -19 -20 -33 -11 -14 -20 -33 -20 -42 -1 -30 -27 -51 -71 -56 -24
-3 -51 -7 -59 -10 -8 -2 -44 -7 -80 -10 -36 -4 -67 -8 -70 -10 -3 -2 -91 -7
-195 -10 -105 -4 -194 -10 -198 -12 -5 -3 -17 4 -28 16 -11 12 -25 21 -32 21
-7 0 -19 9 -27 20 -10 14 -17 16 -26 9 -8 -7 -15 -6 -20 2 -4 8 -3 9 4 5 7 -4
12 -2 12 4 0 6 -11 15 -25 20 -14 5 -25 15 -25 21 0 7 -3 9 -7 6 -3 -4 -13 -1
-22 6 -23 20 -49 28 -56 16 -4 -5 -10 -7 -14 -5 -9 6 -51 -22 -51 -34 0 -4
-13 -22 -29 -39 -21 -22 -38 -31 -61 -31 l-32 0 41 41 c23 23 54 64 69 90 25
46 53 62 66 40 14 -23 228 -151 252 -151 3 0 3 7 0 16 -3 8 -2 13 3 10 5 -3
17 6 26 21 17 25 17 26 -3 21 -16 -4 -19 -2 -15 10 4 9 2 13 -4 9 -12 -8 -90
59 -80 69 10 10 -11 33 -47 50 -17 8 -42 21 -56 29 -32 19 -75 19 -93 0 -8 -8
-17 -11 -21 -8 -3 4 -6 1 -6 -5 0 -7 -7 -12 -15 -12 -8 0 -15 -7 -15 -16 0 -8
-3 -13 -8 -10 -4 2 -18 -8 -30 -22 -96 -114 -108 -135 -87 -156 22 -22 18 -27
-10 -14 -14 6 -25 15 -25 19 0 4 -22 5 -49 2 -43 -5 -51 -3 -63 16 -7 11 -23
21 -35 21 -18 0 -23 6 -23 25 0 25 -4 28 -50 29 l-25 1 2 135 c2 137 16 295
34 385 5 28 10 68 11 90 0 22 8 52 16 67 13 22 19 25 35 16 20 -10 156 -60
285 -103 40 -14 82 -25 93 -25 11 0 29 -4 39 -10 10 -5 104 -12 210 -15 105
-2 194 -7 199 -9 10 -6 61 49 61 66 0 17 79 137 113 172 15 16 26 35 23 43 -3
8 -1 11 4 8 5 -3 12 7 16 22 3 15 8 35 11 43 3 8 7 20 9 25 1 6 11 32 23 58
l21 48 47 -6 c178 -22 211 -27 363 -60 69 -15 137 -28 151 -30 59 -6 115 -18
131 -26 9 -5 48 -10 85 -10 57 -1 78 4 131 30 34 17 62 34 62 39 0 4 7 17 15
27 9 11 33 44 55 74 22 29 40 50 40 45 0 -22 59 53 111 141 65 113 101 163
155 218 30 30 43 37 76 37 21 0 51 -6 66 -14 53 -27 186 -68 295 -91 93 -20
112 -21 124 -9 9 8 25 11 43 8 35 -7 88 14 96 38 3 10 9 18 14 18 5 0 11 14
15 30 4 17 10 30 13 30 15 0 179 344 189 394 3 17 11 34 17 38 16 11 52 9 83
-4z m-3260 -234 c-3 -3 -12 -4 -19 -1 -8 3 -5 6 6 6 11 1 17 -2 13 -5z m4731
-202 c-34 -33 -81 -75 -103 -93 -22 -19 -55 -49 -73 -66 -19 -18 -38 -33 -42
-33 -5 0 -10 -4 -12 -9 -4 -10 -134 -121 -143 -121 -6 0 88 90 245 235 86 79
182 155 188 150 2 -2 -25 -30 -60 -63z m-947 -134 c0 -42 2 -48 9 -31 10 24
99 85 112 77 8 -5 4 -21 -22 -79 -9 -22 -22 -56 -29 -76 -6 -20 -22 -49 -34
-66 -20 -28 -22 -37 -15 -109 20 -208 20 -210 7 -221 -14 -11 -29 -19 -193
-108 -57 -30 -113 -71 -153 -110 -44 -44 -102 -83 -195 -136 -186 -104 -522
-269 -526 -258 -2 5 -17 9 -33 9 -35 0 -37 12 -5 30 22 11 24 17 19 64 l-5 51
59 34 c32 19 60 37 63 40 3 3 25 20 49 36 25 17 61 47 82 67 20 20 40 34 43
31 3 -4 6 1 6 11 0 9 5 14 10 11 6 -3 10 0 10 7 0 7 15 23 33 35 17 13 56 45
85 72 28 27 52 47 52 45 0 -3 41 36 90 85 50 49 90 95 90 101 0 6 5 8 10 5 6
-3 10 -2 10 3 0 12 31 47 133 155 44 45 99 114 124 152 48 74 91 125 105 125
4 0 8 -24 9 -52z m-5361 -8 c0 -5 -2 -10 -4 -10 -3 0 -8 5 -11 10 -3 6 -1 10
4 10 6 0 11 -4 11 -10z m6325 -322 c-33 -52 -65 -88 -77 -88 -5 0 2 15 15 33
69 95 79 108 84 103 3 -3 -7 -25 -22 -48z m-585 18 c0 -2 -18 -15 -40 -30 -22
-14 -40 -22 -40 -17 0 5 15 18 33 30 30 19 47 26 47 17z m-357 -237 c-6 -6
-31 -25 -56 -42 -64 -46 -203 -153 -267 -207 -109 -92 -369 -249 -412 -250 -9
0 -22 -8 -27 -17 -6 -10 -11 -15 -11 -11 0 4 -21 -2 -47 -13 -148 -63 -223
-88 -229 -77 -3 5 -4 10 -3 12 5 3 154 75 224 108 28 12 151 79 274 148 173
97 240 140 294 190 42 39 109 86 166 117 100 55 112 60 94 42z m-1426 -381
c-3 -8 -6 -5 -6 6 -1 11 2 17 5 13 3 -3 4 -12 1 -19z m150 -199 c0 -22 4 -51
7 -63 5 -21 -2 -27 -75 -60 -44 -20 -86 -36 -92 -36 -6 0 -29 -9 -51 -19 -68
-32 -347 -136 -416 -155 -36 -10 -96 -27 -135 -38 -38 -11 -77 -22 -85 -24
-34 -8 -297 -75 -315 -81 -65 -18 -472 -93 -570 -105 -184 -21 -558 -14 -589
11 -12 10 -14 67 -3 77 13 13 94 11 152 -3 33 -9 112 -20 175 -25 98 -9 122
-8 154 6 20 8 35 20 32 25 -10 15 10 22 77 27 34 3 78 7 97 9 19 2 80 9 135
15 196 22 363 53 560 102 110 28 214 52 230 53 39 4 353 127 430 170 33 18
107 60 165 94 58 34 107 61 110 61 3 0 6 -18 7 -41z m1383 -134 c0 -58 -4
-105 -9 -105 -5 0 -16 -6 -23 -13 -15 -14 -68 -41 -84 -42 -12 0 -48 -24 -86
-57 -15 -13 -44 -34 -64 -48 -20 -14 -44 -32 -53 -40 -26 -22 -52 -39 -86 -54
-16 -8 -43 -25 -59 -37 -17 -13 -35 -24 -40 -26 -18 -4 -132 -63 -122 -63 5 0
-2 -8 -15 -18 -20 -16 -43 -25 -89 -37 -3 0 -36 -15 -73 -33 -38 -18 -73 -32
-79 -32 -6 0 -26 -11 -44 -25 -18 -14 -36 -25 -41 -25 -4 0 -34 -18 -67 -41
-32 -22 -68 -44 -81 -49 -22 -8 -22 -7 -21 47 l1 55 111 51 c61 29 117 57 125
63 8 5 34 18 59 28 25 10 61 25 81 33 42 17 97 59 88 67 -3 4 -31 -5 -63 -19
-83 -37 -115 -33 -47 6 30 17 82 53 115 79 34 26 80 58 103 71 52 30 277 172
403 255 52 34 106 73 119 88 14 14 28 26 33 26 4 0 8 -47 8 -105z m-1361 11
c-2 -2 -15 -7 -29 -10 l-25 -7 25 15 c21 12 42 14 29 2z m-3415 -116 c5 -5 7
-10 3 -10 -12 0 -77 29 -77 34 0 7 63 -13 74 -24z m51 -20 c8 -13 -5 -13 -25
0 -13 8 -13 10 2 10 9 0 20 -4 23 -10z m110 -50 c3 -6 -1 -7 -9 -4 -18 7 -21
14 -7 14 6 0 13 -4 16 -10z m351 -109 c67 -17 196 -40 267 -47 38 -3 68 -11
68 -18 8 -63 5 -86 -10 -82 -17 6 -191 53 -226 63 -11 3 -34 11 -52 19 -17 8
-39 14 -50 14 -23 0 -35 9 -50 37 -17 29 -16 36 1 30 8 -3 31 -10 52 -16z
m2922 -488 l-3 -66 -40 -13 c-46 -14 -234 -73 -253 -79 -7 -3 -14 -5 -17 -5
-3 0 -30 -11 -61 -25 -30 -13 -58 -24 -62 -23 -4 1 -14 -2 -22 -5 -20 -8 -128
-38 -162 -44 -16 -3 -28 -8 -28 -12 0 -3 -21 -7 -48 -7 -40 -2 -88 -11 -207
-40 -45 -11 -144 -26 -200 -29 -33 -2 -70 -6 -82 -9 -52 -11 -115 -17 -212
-21 -57 -2 -106 -8 -110 -13 -9 -13 -179 -50 -291 -63 -52 -6 -173 -13 -267
-16 -163 -5 -173 -4 -174 14 0 10 -2 30 -4 44 -3 22 1 28 23 33 32 7 270 22
472 31 80 3 181 12 225 19 44 8 149 14 232 15 152 2 248 16 378 56 28 9 64 18
80 21 17 3 80 23 140 44 61 21 133 46 160 55 28 10 55 21 60 25 6 4 44 18 85
30 82 24 349 128 365 141 20 19 26 6 23 -58z m-3813 -120 c49 -14 103 -32 120
-41 19 -9 78 -17 170 -23 77 -4 190 -17 250 -28 61 -11 111 -21 112 -21 2 0
20 -59 26 -87 4 -20 2 -22 -27 -17 -93 17 -319 80 -408 115 -57 23 -137 47
-178 54 -75 14 -281 72 -290 82 -12 13 142 -10 225 -34z m1239 -198 c54 -7
100 -16 103 -19 3 -2 7 -31 10 -63 l4 -59 -78 8 c-43 4 -104 12 -135 18 -155
27 -183 33 -190 39 -3 3 -9 29 -12 58 -7 69 2 74 112 51 48 -10 131 -25 186
-33z"/>
<path d="M7026 2393 c-6 -14 -5 -15 5 -6 7 7 10 15 7 18 -3 3 -9 -2 -12 -12z"/>
<path d="M6758 2190 c-76 -77 -138 -142 -138 -145 0 -3 -20 -34 -43 -69 -27
-39 -55 -98 -71 -150 -16 -48 -43 -109 -62 -136 -19 -27 -34 -52 -34 -56 0
-21 191 163 246 237 14 19 43 69 64 111 22 43 50 95 63 115 13 21 28 49 32 63
4 14 13 32 20 40 23 28 76 130 68 130 -4 0 -70 -63 -145 -140z"/>
<path d="M6365 1574 c-49 -30 -121 -70 -160 -89 -38 -18 -108 -66 -155 -105
-147 -122 -302 -219 -478 -297 -90 -40 -169 -73 -177 -73 -8 0 -17 -4 -20 -10
-13 -20 125 1 210 33 22 8 96 35 165 59 69 25 140 53 159 62 40 21 144 87 151
96 3 3 21 17 40 30 59 40 383 355 359 349 -2 0 -44 -25 -94 -55z"/>
<path d="M5130 916 c-82 -23 -140 -36 -164 -36 -60 0 -220 -73 -386 -177 -128
-80 -266 -173 -258 -173 48 0 197 59 378 150 347 175 493 250 484 249 -5 0
-29 -6 -54 -13z"/>
<path d="M5251 5063 c-10 -11 -16 -13 -19 -5 -7 22 -20 12 -28 -20 -3 -18 -14
-44 -23 -57 -9 -14 -23 -43 -31 -65 -15 -40 -17 -41 -60 -40 -46 1 -58 4 -100
21 -17 7 -29 7 -37 1 -7 -6 -20 -7 -29 -4 -19 7 -54 -19 -54 -40 0 -15 220
-89 229 -77 11 15 59 35 69 30 18 -12 50 41 81 134 40 122 41 166 2 122z"/>
<path d="M3069 4015 c-1 -6 -1 -13 -1 -16 1 -3 -10 -5 -23 -3 -14 1 -25 -2
-25 -6 0 -5 -13 -29 -30 -53 -16 -25 -30 -48 -30 -51 0 -4 -15 -29 -34 -57
-19 -27 -38 -58 -41 -69 -9 -27 -65 -36 -139 -21 -106 22 -130 25 -173 25 -47
0 -78 -21 -68 -46 6 -16 119 -58 157 -58 12 0 48 -5 80 -12 42 -9 61 -9 66 -2
4 6 25 17 47 24 34 11 37 14 20 21 -14 6 -9 7 15 4 32 -4 38 -1 74 43 21 26
49 77 63 113 13 35 34 83 45 107 16 32 18 46 10 54 -7 7 -13 8 -13 3z"/>
<path d="M775 3027 c-16 -6 -35 -16 -42 -23 -7 -7 -16 -14 -20 -16 -5 -1 -21
-22 -37 -45 -25 -38 -33 -43 -66 -43 -20 0 -57 10 -82 23 -40 20 -51 22 -99
12 -48 -9 -54 -13 -54 -35 0 -21 12 -31 72 -62 39 -21 96 -44 127 -52 54 -14
101 -12 90 5 -3 5 4 9 14 9 12 0 42 27 78 72 33 40 67 82 77 92 9 11 17 26 17
33 0 7 0 15 0 18 0 3 -3 5 -7 6 -5 1 -15 4 -23 9 -8 4 -28 3 -45 -3z"/>
<path d="M4585 2250 c-3 -5 -1 -10 4 -10 6 0 11 5 11 10 0 6 -2 10 -4 10 -3 0
-8 -4 -11 -10z"/>
<path d="M2986 1820 c-25 -15 -55 -35 -66 -45 -11 -10 -30 -23 -42 -29 -11 -6
-26 -20 -32 -31 -6 -11 -35 -55 -63 -98 -54 -81 -62 -104 -41 -125 15 -15 23
-15 40 1 8 6 23 17 33 23 11 5 38 46 60 90 42 84 61 110 112 157 l30 28 70
-35 c39 -20 75 -36 81 -36 5 0 49 -18 96 -40 65 -30 95 -38 119 -34 18 3 49 8
69 11 46 6 60 32 18 31 -16 -1 -35 4 -43 10 -10 9 -17 8 -26 -1 -10 -9 -11 -8
-6 5 5 12 1 20 -11 24 -11 4 -27 14 -37 22 -9 8 -20 13 -23 10 -5 -6 -42 9
-170 67 -64 29 -110 28 -168 -5z m414 -160 c0 -5 -2 -10 -4 -10 -3 0 -8 5 -11
10 -3 6 -1 10 4 10 6 0 11 -4 11 -10z"/>
<path d="M1706 1485 c-3 -9 0 -15 8 -15 8 0 16 7 20 15 3 9 0 15 -8 15 -8 0
-16 -7 -20 -15z"/>
<path d="M4556 9721 c-3 -5 -36 -21 -73 -36 -38 -15 -79 -32 -93 -38 -47 -19
-155 -58 -185 -66 -79 -21 -238 -117 -619 -374 -39 -26 -104 -66 -144 -89 -40
-22 -71 -42 -68 -45 2 -2 18 3 34 11 17 9 52 23 79 32 45 15 110 46 263 126
239 126 317 169 415 233 61 39 137 86 170 105 99 55 245 142 245 146 0 8 -19
4 -24 -5z"/>
<path d="M3365 9120 c-140 -68 -345 -158 -378 -166 -41 -10 -41 -21 1 -19 63
4 103 16 156 48 28 16 110 61 181 99 111 60 162 91 145 87 -3 0 -50 -23 -105
-49z"/>
<path d="M2832 8846 c-15 -11 -38 -31 -52 -44 -14 -12 -49 -39 -78 -59 -28
-20 -50 -38 -48 -40 7 -7 133 59 217 113 l76 49 -44 1 c-31 1 -52 -5 -71 -20z"/>
<path d="M1910 8445 c-23 -9 -28 -14 -15 -14 11 0 31 6 45 14 31 18 16 18 -30
0z"/>
<path d="M1310 8255 c-33 -19 -21 -19 21 0 19 8 27 14 19 14 -8 0 -26 -6 -40
-14z"/>
<path d="M1080 8180 c-9 -6 -10 -10 -3 -10 6 0 15 5 18 10 8 12 4 12 -15 0z"/>
<path d="M970 8144 c-36 -12 -78 -23 -94 -23 -16 -1 -43 -5 -60 -10 -114 -34
-176 -51 -211 -57 -43 -7 -295 -108 -488 -195 l-117 -53 0 -61 0 -60 33 -2
c17 -1 57 8 87 19 112 44 362 185 430 243 40 34 102 66 117 61 11 -5 237 86
358 144 54 25 25 23 -55 -6z"/>
<path d="M5 7610 c-8 -13 5 -13 25 0 13 8 13 10 -2 10 -9 0 -20 -4 -23 -10z"/>
<path d="M6988 7493 c6 -2 18 -2 25 0 6 3 1 5 -13 5 -14 0 -19 -2 -12 -5z"/>
<path d="M6807 7423 c-4 -4 -29 -6 -55 -5 -52 3 -155 -22 -160 -38 -2 -5 -8
-7 -13 -4 -5 3 -33 -19 -61 -50 -28 -31 -55 -53 -59 -50 -8 5 -13 -10 -10 -29
1 -4 -7 -10 -16 -14 -10 -4 -21 -10 -24 -15 -3 -4 -21 -10 -41 -11 -20 -2 -44
-9 -53 -17 -9 -8 -24 -15 -32 -16 -8 -1 -23 -12 -34 -25 -10 -12 -22 -20 -25
-17 -14 15 -103 -94 -144 -177 -44 -88 -45 -91 -45 -190 0 -84 4 -107 23 -145
35 -71 127 -178 243 -284 115 -104 165 -137 195 -126 11 4 29 6 41 5 14 -1 25
5 29 17 3 10 11 18 17 18 13 0 87 87 87 102 0 5 4 7 8 4 5 -3 30 32 57 77 128
221 161 276 191 322 29 46 71 130 106 215 8 19 20 64 26 100 6 36 19 109 29
163 17 95 17 98 -2 116 -32 31 -92 60 -133 66 -101 12 -139 15 -145 8z"/>
<path d="M4390 7385 c14 -8 30 -14 35 -14 6 0 -1 6 -15 14 -14 8 -29 14 -35
14 -5 0 1 -6 15 -14z"/>
<path d="M4560 7300 c81 -42 181 -129 225 -196 21 -33 62 -88 90 -124 29 -36
68 -93 88 -126 40 -67 74 -95 104 -89 11 2 42 17 70 34 86 53 122 61 273 61
184 0 213 -12 308 -126 27 -32 59 -79 72 -104 12 -25 73 -97 134 -160 105
-108 206 -241 206 -270 0 -7 11 -41 25 -76 14 -34 30 -85 36 -114 12 -56 17
-59 22 -14 2 16 7 37 11 47 8 17 7 24 -14 107 -7 25 -13 50 -13 57 0 7 -4 10
-8 7 -4 -2 -11 6 -15 18 -3 13 -51 66 -105 119 -87 85 -99 102 -105 140 -4 24
-19 69 -32 99 -14 30 -25 59 -24 63 1 4 -9 18 -23 31 -14 13 -25 28 -25 35 0
6 -17 29 -37 52 -39 43 -99 79 -133 79 -12 0 -33 13 -48 29 -25 28 -82 50
-139 54 -12 1 -25 5 -29 9 -4 4 -12 4 -18 -1 -6 -5 -34 -11 -63 -14 -29 -3
-56 -8 -61 -11 -5 -3 -22 -8 -38 -10 -16 -3 -40 -8 -54 -11 -134 -31 -215 -33
-243 -7 -11 9 -35 42 -55 72 -82 128 -108 164 -135 184 -23 17 -65 51 -133
105 -17 14 -152 81 -161 81 -5 -1 17 -14 47 -30z"/>
<path d="M1938 7243 c7 -3 16 -2 19 1 4 3 -2 6 -13 5 -11 0 -14 -3 -6 -6z"/>
<path d="M748 6435 c-18 -51 -29 -155 -24 -215 8 -85 59 -250 78 -250 4 0 8
-5 8 -10 0 -12 7 -22 72 -93 59 -65 54 -60 108 -103 72 -59 219 -154 295 -191
39 -19 81 -41 95 -48 91 -48 442 -161 530 -170 19 -2 70 -10 113 -18 42 -8 77
-11 77 -7 0 12 -161 75 -272 105 -25 8 -55 18 -65 23 -10 5 -54 17 -98 26
-154 33 -317 100 -431 178 -39 26 -74 48 -78 48 -3 0 -43 28 -88 62 -132 102
-209 207 -269 370 -25 67 -32 105 -38 198 -3 63 -9 106 -13 95z"/>
<path d="M7880 5792 c0 -5 -6 -9 -12 -10 -45 -3 -118 -28 -118 -39 0 -12 -110
-11 -110 1 0 6 -5 3 -11 -7 -8 -13 -14 -15 -30 -7 -13 8 -19 8 -19 0 0 -6 -4
-9 -9 -5 -6 3 -13 0 -18 -8 -11 -17 -63 -39 -63 -27 0 6 -4 10 -10 10 -6 0 -9
-6 -7 -12 1 -8 -6 -12 -16 -10 -21 4 -87 -35 -87 -50 0 -6 -7 -7 -16 -4 -8 3
-12 2 -9 -3 3 -5 -4 -12 -15 -16 -11 -3 -20 -10 -20 -15 0 -5 -9 -12 -20 -15
-11 -3 -20 -10 -20 -15 0 -15 -64 -80 -77 -80 -7 0 -13 -5 -13 -11 0 -6 15 -2
33 9 110 66 370 180 447 197 43 9 342 107 338 111 -8 7 -118 13 -118 6z"/>
<path d="M7880 5699 c-205 -68 -269 -88 -300 -94 -19 -4 -41 -11 -50 -15 -8
-5 -37 -16 -65 -26 -90 -31 -219 -94 -288 -141 -55 -37 -187 -156 -187 -169 0
-2 -12 -16 -26 -31 -46 -50 -111 -137 -133 -180 l-21 -43 34 0 c19 0 37 -4 40
-9 6 -9 -84 -61 -107 -61 -9 0 -30 -25 -47 -55 -18 -31 -45 -66 -62 -78 -44
-32 -98 -145 -105 -221 -4 -51 -2 -71 16 -111 29 -65 65 -112 103 -131 16 -9
56 -34 88 -57 141 -101 171 -120 264 -167 76 -38 110 -50 145 -50 46 0 47 1
159 115 62 64 122 130 132 148 11 18 65 80 120 138 150 158 251 315 304 469
26 75 85 228 96 248 43 80 110 308 105 358 -14 127 -18 150 -28 161 -23 24
-117 25 -187 2z"/>
<path d="M5 681 c6 -5 23 -13 40 -17 39 -9 30 0 -15 15 -19 6 -30 7 -25 2z"/>
<path d="M435 558 c39 -11 93 -22 120 -24 48 -3 49 -3 15 7 -46 13 -171 38
-190 38 -8 -1 17 -10 55 -21z"/>
</g>
</svg>
