<?xml version="1.0" standalone="no"?>
<!DOCTYPE svg PUBLIC "-//W3C//DTD SVG 20010904//EN"
 "http://www.w3.org/TR/2001/REC-SVG-20010904/DTD/svg10.dtd">
<svg version="1.0" xmlns="http://www.w3.org/2000/svg"
 width="1000.000000pt" height="1000.000000pt" viewBox="0 0 1000.000000 1000.000000"
 preserveAspectRatio="xMidYMid meet">
<metadata>
Created by potrace 1.14, written by Peter Selinger 2001-2017
</metadata>
<g transform="translate(0.000000,1000.000000) scale(0.100000,-0.100000)"
fill="#000000" stroke="none">
<path d="M6576 9683 c-14 -14 -27 -36 -27 -49 -3 -46 -4 -49 -11 -54 -4 -3 13
-18 38 -33 25 -15 43 -23 40 -18 -4 5 -2 12 3 15 5 4 12 2 16 -3 3 -6 19 3 36
20 16 16 27 34 24 39 -3 6 -1 10 6 10 10 0 10 3 1 12 -7 7 -12 18 -12 25 0 18
-44 58 -67 60 -12 1 -33 -9 -47 -24z"/>
<path d="M4064 9662 c-16 -9 -55 -166 -59 -233 -1 -14 -5 -48 -8 -75 -4 -27
-10 -80 -13 -119 -3 -38 -8 -73 -11 -77 -2 -5 1 -8 7 -8 11 0 14 -219 3 -287
l-5 -32 -132 132 c-72 73 -194 191 -269 262 -300 282 -293 277 -308 254 -6
-10 -9 -10 -9 -1 0 6 -5 12 -12 12 -6 0 -8 -3 -5 -6 3 -4 3 -14 -2 -23 -5 -9
-11 -61 -15 -116 -7 -104 -8 -117 -27 -380 -11 -149 -17 -268 -18 -373 l-1
-44 -31 26 c-17 14 -35 26 -40 26 -13 0 -179 136 -209 171 -14 16 -39 37 -56
47 -18 9 -49 30 -70 45 -83 60 -277 168 -314 174 -8 1 -22 -2 -30 -7 -12 -7
-12 -18 -2 -68 7 -32 15 -79 18 -103 3 -24 12 -82 20 -129 8 -47 18 -105 21
-130 3 -25 14 -71 24 -102 10 -32 19 -63 19 -70 0 -7 14 -40 30 -72 17 -32 30
-66 30 -75 1 -9 25 -65 54 -126 30 -60 53 -111 51 -113 -2 -2 -20 4 -40 13
-21 8 -40 13 -43 10 -3 -3 -10 -1 -16 4 -15 12 -217 64 -396 101 -30 6 -64 15
-75 20 -82 35 -395 46 -452 16 -18 -9 -33 -21 -33 -26 0 -16 64 -74 260 -235
338 -276 529 -484 825 -893 80 -112 155 -253 155 -293 0 -15 4 -30 9 -33 4 -3
6 -16 4 -28 -3 -19 7 -96 34 -243 5 -30 63 -209 84 -261 53 -130 100 -214 156
-274 28 -30 38 -54 35 -81 -1 -4 3 -21 8 -38 8 -28 5 -33 -24 -56 -18 -14 -36
-25 -39 -25 -10 0 -142 -92 -145 -101 -2 -5 -10 -9 -17 -9 -23 0 -134 -120
-155 -168 -12 -26 -30 -64 -41 -85 -11 -20 -22 -49 -25 -65 -3 -15 -7 -34 -10
-42 -18 -44 0 -222 33 -340 17 -59 21 -70 52 -140 37 -85 36 -92 -7 -136 -61
-62 -111 -132 -121 -172 -15 -57 -19 -141 -9 -181 11 -45 51 -131 59 -131 4 0
26 -15 48 -34 56 -47 135 -59 270 -41 45 6 195 75 336 154 39 22 97 54 130 71
33 18 114 60 180 95 125 67 162 85 335 167 58 27 113 54 123 59 134 73 315
146 343 139 4 -1 11 5 16 14 11 20 42 21 58 1 19 -23 24 -151 11 -244 -17
-112 -73 -308 -127 -443 -49 -121 -70 -162 -142 -274 l-45 -70 -101 -28 c-56
-15 -153 -43 -217 -62 -63 -19 -123 -34 -132 -34 -9 0 -17 -3 -17 -8 0 -4 -19
-13 -42 -20 -41 -13 -91 -34 -174 -73 -22 -10 -45 -19 -50 -19 -6 0 -43 -20
-84 -45 -40 -25 -114 -67 -164 -92 -167 -84 -215 -113 -401 -238 -211 -142
-251 -171 -329 -237 -39 -32 -78 -58 -87 -58 -10 0 -24 -7 -33 -15 -8 -8 -22
-15 -30 -15 -9 0 -16 -3 -16 -8 0 -7 -8 -12 -76 -47 -21 -11 -42 -24 -46 -30
-5 -7 -8 -7 -8 0 0 6 -4 4 -9 -3 -4 -7 -14 -14 -22 -15 -8 -2 -18 -5 -24 -8
-5 -4 -28 -12 -50 -18 -22 -7 -60 -21 -85 -31 -42 -17 -74 -28 -85 -30 -3 -1
-21 -8 -42 -16 -20 -9 -46 -18 -57 -20 -12 -2 -30 -8 -41 -13 -21 -11 -180
-59 -216 -66 -11 -2 -28 -6 -37 -9 -9 -3 -33 -7 -52 -10 -19 -3 -66 -13 -105
-22 -38 -9 -88 -18 -110 -20 -22 -2 -69 -8 -105 -14 -36 -5 -74 -9 -85 -9 -11
0 -84 0 -161 -1 -78 0 -153 4 -167 9 -14 5 -27 8 -30 5 -2 -2 -28 0 -58 6 -51
11 -77 18 -124 36 -11 4 -30 9 -43 11 -45 7 -248 126 -262 154 -6 10 -16 19
-23 20 -21 0 -171 186 -195 241 -13 29 -28 56 -34 59 -5 3 -9 9 -9 13 2 19
-13 66 -21 66 -5 0 -6 5 -3 10 4 6 0 21 -8 34 -8 12 -17 33 -20 47 -2 13 -5
-684 -6 -1548 l-1 -1573 5000 0 5000 0 0 3951 c0 3157 -3 3950 -12 3946 -7 -2
-39 -12 -70 -21 -31 -9 -60 -21 -63 -26 -3 -6 -14 -10 -23 -10 -18 -1 -120
-51 -381 -189 -14 -7 -42 -23 -61 -36 -19 -12 -69 -44 -110 -70 -41 -27 -106
-74 -145 -105 -38 -31 -84 -66 -102 -78 -17 -12 -61 -52 -97 -87 -36 -36 -68
-65 -70 -65 -6 0 -104 -103 -149 -155 -17 -21 -44 -52 -59 -69 -15 -17 -28
-35 -28 -41 0 -5 -12 -21 -26 -35 -15 -13 -36 -38 -48 -55 -13 -16 -48 -65
-79 -107 -31 -42 -57 -81 -57 -86 0 -6 -7 -13 -16 -16 -8 -3 -12 -10 -9 -16 3
-5 1 -10 -4 -10 -6 0 -11 -8 -11 -18 0 -10 -8 -27 -18 -38 -15 -16 -95 -168
-97 -184 -1 -3 -13 -28 -27 -56 -15 -28 -48 -114 -73 -190 -25 -76 -50 -148
-55 -159 -6 -11 -11 -29 -13 -40 -11 -62 -20 -96 -28 -101 -5 -3 -9 -22 -9
-42 0 -20 -4 -53 -10 -72 -5 -19 -12 -60 -15 -90 -3 -30 -7 -64 -9 -75 -7 -34
-17 -118 -21 -175 -2 -30 -6 -73 -9 -95 -15 -109 -19 -212 -19 -455 0 -146 3
-283 6 -305 3 -22 9 -74 12 -115 3 -41 10 -88 15 -105 5 -16 14 -70 20 -119 6
-49 14 -94 17 -99 3 -5 6 -25 8 -45 2 -20 6 -48 9 -62 3 -14 8 -38 11 -55 5
-36 9 -57 23 -110 16 -57 25 -152 18 -179 -4 -16 -18 -27 -46 -36 -38 -12 -55
-11 -213 24 -304 65 -519 105 -627 116 -134 14 -141 15 -165 22 -11 4 -41 9
-67 12 -27 3 -69 9 -95 12 -27 3 -73 9 -103 14 -30 5 -80 12 -110 15 -30 3
-73 8 -95 10 -22 3 -67 7 -100 10 -33 3 -78 7 -100 10 -22 2 -66 5 -98 6 -32
1 -60 6 -63 10 -2 4 12 36 33 70 20 35 54 105 75 157 21 52 47 106 57 121 24
34 129 252 134 277 2 10 12 37 22 59 16 36 82 235 86 260 1 6 8 30 15 55 13
42 31 110 40 155 2 11 6 31 9 45 3 14 10 61 16 105 6 44 14 91 16 105 8 38 8
421 0 530 -16 208 -22 253 -52 365 -24 87 -31 120 -42 178 -3 15 -9 27 -13 27
-4 0 -10 13 -13 29 -3 16 -23 64 -43 107 -20 44 -38 89 -39 102 -4 31 -61 150
-91 189 -13 17 -24 36 -24 42 0 6 -4 11 -10 11 -5 0 -16 12 -24 28 -8 15 -34
48 -58 73 -24 26 -65 75 -93 110 -27 35 -78 89 -112 119 -33 30 -64 63 -68 73
-3 9 -11 17 -16 17 -5 0 -38 24 -74 53 -35 28 -82 66 -104 82 -23 17 -51 38
-63 48 -12 10 -32 20 -45 23 -13 4 -23 10 -23 14 0 4 -30 23 -67 41 -38 19
-74 40 -81 47 -7 6 -19 12 -26 12 -7 0 -21 9 -30 19 -9 10 -25 17 -34 15 -34
-9 -92 141 -93 241 -1 17 -7 57 -15 90 -7 33 -16 96 -18 140 -3 44 -8 98 -11
120 -22 176 -29 386 -28 780 1 215 6 373 15 452 8 68 12 127 8 133 -22 36
-194 -96 -305 -235 -22 -27 -50 -61 -62 -75 -63 -71 -183 -233 -183 -245 0 -3
-16 -27 -35 -54 -19 -26 -45 -70 -57 -97 l-21 -49 -52 105 c-62 126 -135 263
-145 270 -3 3 -18 24 -31 47 -28 47 -86 117 -176 213 -63 67 -76 81 -146 163
-41 47 -52 53 -73 39z"/>
<path d="M1790 9438 c0 -4 -9 -8 -19 -8 -11 0 -23 -5 -27 -11 -4 -8 -9 -7 -15
2 -7 12 -9 11 -10 -1 -1 -8 -1 -19 0 -24 1 -4 -3 -14 -9 -21 -11 -13 -4 -45
11 -45 5 0 9 -6 9 -14 0 -8 14 -21 30 -30 17 -8 30 -11 30 -6 0 5 9 7 20 5 12
-2 23 2 27 10 3 8 11 15 18 15 30 0 23 96 -7 106 -15 4 -17 8 -8 14 7 5 1 9
-19 12 -17 2 -31 1 -31 -4z"/>
<path d="M1920 9420 c-9 -6 -10 -10 -3 -10 6 0 15 5 18 10 8 12 4 12 -15 0z"/>
<path d="M1915 9300 c3 -5 8 -10 11 -10 2 0 4 5 4 10 0 6 -5 10 -11 10 -5 0
-7 -4 -4 -10z"/>
<path d="M9081 9178 c-28 -27 -31 -37 -27 -67 3 -20 5 -37 6 -39 0 -2 5 0 12
4 8 5 9 2 5 -9 -5 -13 -1 -16 16 -14 15 1 21 -3 19 -13 -3 -12 -1 -13 9 -2 7
6 26 12 41 12 18 0 28 5 28 15 0 7 6 18 14 22 16 9 19 22 17 71 -1 25 -5 32
-21 32 -11 0 -20 5 -20 10 0 6 -15 10 -33 10 -24 0 -42 -9 -66 -32z"/>
<path d="M9016 9033 c-6 -14 -5 -15 5 -6 7 7 10 15 7 18 -3 3 -9 -2 -12 -12z"/>
<path d="M470 8790 c-8 -5 -18 -6 -22 -4 -4 3 -8 -2 -8 -12 0 -13 -3 -14 -14
-5 -11 9 -13 6 -11 -13 2 -15 -3 -27 -12 -30 -12 -5 -13 -9 -3 -21 6 -8 9 -19
5 -25 -3 -5 0 -10 7 -10 11 0 10 -2 0 -9 -11 -7 -11 -9 2 -14 9 -4 16 -13 16
-21 0 -15 50 -23 105 -18 38 4 81 58 63 79 -8 10 -8 20 0 38 10 21 9 25 -6 26
-9 1 -20 1 -24 0 -4 0 -5 6 -2 13 6 15 -47 33 -65 22 -5 -4 -11 -2 -13 4 -2 6
-9 6 -18 0z"/>
<path d="M635 8689 c-4 -6 -5 -12 -2 -15 2 -3 7 2 10 11 7 17 1 20 -8 4z"/>
<path d="M7345 8679 c-4 -6 -13 -8 -21 -5 -8 3 -14 1 -14 -4 0 -6 -5 -9 -12
-7 -6 1 -18 -11 -27 -28 -9 -16 -20 -33 -26 -37 -6 -5 -5 -8 2 -8 7 0 15 -11
19 -25 3 -13 9 -24 13 -23 21 2 33 -4 28 -15 -6 -17 62 -10 84 9 9 8 19 11 22
7 4 -3 7 3 7 14 0 12 8 24 17 27 13 5 14 9 5 15 -7 4 -14 18 -15 29 -1 12 -7
22 -15 22 -7 0 -10 5 -7 10 6 10 -7 14 -34 11 -7 -2 -10 2 -6 8 3 6 2 11 -4
11 -5 0 -13 -5 -16 -11z"/>
<path d="M370 8659 c0 -5 5 -7 10 -4 6 3 10 8 10 11 0 2 -4 4 -10 4 -5 0 -10
-5 -10 -11z"/>
<path d="M485 8580 c-3 -6 1 -7 9 -4 18 7 21 14 7 14 -6 0 -13 -4 -16 -10z"/>
<path d="M7400 8480 c-9 -6 -10 -10 -3 -10 6 0 15 5 18 10 8 12 4 12 -15 0z"/>
<path d="M6105 8473 c-11 -3 -26 -12 -33 -21 -7 -10 -16 -16 -20 -15 -4 1 -8
-11 -9 -26 -4 -41 38 -83 74 -77 16 2 31 5 34 5 16 2 40 53 34 72 -6 17 -52
71 -58 68 -1 -1 -11 -3 -22 -6z"/>
<path d="M8615 7731 c5 -10 -1 -12 -28 -8 -24 3 -36 1 -34 -7 1 -6 -8 -11 -20
-10 -18 0 -20 -2 -11 -13 9 -11 8 -13 -2 -11 -8 2 -15 -1 -16 -7 -7 -45 -18
-74 -27 -68 -6 3 -7 1 -3 -6 4 -6 11 -9 16 -6 5 3 17 -6 29 -20 11 -15 22 -26
25 -26 3 1 16 1 29 1 18 0 19 -2 7 -11 -13 -9 -12 -10 3 -5 9 3 24 9 34 13 11
4 14 3 9 -5 -5 -8 -2 -10 8 -6 9 3 16 10 16 16 0 5 5 6 11 2 7 -4 10 -1 7 7
-6 18 18 42 34 34 7 -4 5 0 -4 8 -16 13 -16 15 -1 36 15 22 15 23 -6 11 -20
-10 -22 -9 -19 12 2 14 -2 22 -9 21 -7 -2 -13 2 -13 7 0 6 5 10 12 10 6 0 8 3
5 6 -4 4 -14 1 -24 -7 -11 -9 -14 -10 -9 -1 4 7 2 12 -4 12 -6 0 -9 4 -5 9 3
5 0 13 -6 17 -8 5 -9 3 -4 -5z"/>
<path d="M8470 7559 c0 -5 5 -7 10 -4 6 3 10 8 10 11 0 2 -4 4 -10 4 -5 0 -10
-5 -10 -11z"/>
<path d="M620 7193 c-8 -2 -22 -7 -30 -10 -8 -4 -19 -5 -24 -4 -5 1 -6 -5 -3
-13 3 -8 3 -17 -1 -20 -20 -21 5 -116 31 -116 4 0 6 -4 3 -8 -2 -4 0 -14 6
-22 8 -12 9 -11 4 4 -5 16 -2 18 26 14 24 -4 37 1 54 17 13 13 29 26 36 29 10
4 10 7 1 12 -7 3 -9 12 -6 20 3 7 9 11 14 8 15 -9 10 3 -8 22 -10 10 -18 22
-18 27 0 6 -13 18 -30 28 -33 19 -34 20 -55 12z"/>
<path d="M790 6960 c0 -5 5 -10 11 -10 5 0 7 5 4 10 -3 6 -8 10 -11 10 -2 0
-4 -4 -4 -10z"/>
<path d="M7470 6748 c0 -4 -3 -7 -7 -7 -27 4 -63 -3 -58 -11 3 -5 2 -10 -3
-10 -12 0 -21 -46 -15 -70 3 -11 15 -20 27 -22 11 -2 20 -9 19 -15 -2 -8 5 -8
27 0 17 6 30 15 30 20 0 4 4 6 8 3 5 -3 16 11 26 30 9 21 11 32 4 28 -8 -5 -9
-2 -5 9 4 12 1 17 -9 17 -11 0 -15 6 -12 18 4 12 -1 18 -13 18 -11 0 -19 -4
-19 -8z"/>
<path d="M2516 6697 c-10 -8 -30 -12 -44 -9 -17 3 -23 1 -18 -7 4 -6 1 -11 -7
-11 -40 0 -23 -99 17 -102 36 -2 41 -3 54 -12 18 -11 51 8 76 41 15 20 16 27
5 34 -7 4 -10 11 -6 15 10 11 -13 35 -27 27 -6 -4 -5 1 3 10 12 15 12 17 -4
11 -9 -4 -20 -2 -24 5 -5 8 -12 7 -25 -2z"/>
<path d="M7350 6616 c0 -2 8 -10 18 -17 15 -13 16 -12 3 4 -13 16 -21 21 -21
13z"/>
<path d="M2590 6559 c0 -5 5 -7 10 -4 6 3 10 8 10 11 0 2 -4 4 -10 4 -5 0 -10
-5 -10 -11z"/>
<path d="M1313 6148 c-11 -13 -33 -33 -48 -45 -16 -13 -26 -26 -22 -29 4 -4 2
-13 -4 -21 -9 -10 -5 -21 15 -48 15 -19 32 -35 39 -36 7 0 25 -2 40 -3 16 -1
32 5 36 13 5 8 17 12 27 9 14 -3 19 1 21 16 0 12 3 34 6 50 3 18 -1 35 -9 44
-8 7 -12 17 -9 22 3 4 -5 10 -16 13 -16 4 -20 11 -15 24 6 13 1 12 -18 -6 -25
-24 -25 -24 -21 -2 5 26 3 26 -22 -1z"/>
<path d="M1396 6162 c-3 -5 1 -9 9 -9 8 0 12 4 9 9 -3 4 -7 8 -9 8 -2 0 -6 -4
-9 -8z"/>
<path d="M1335 5941 c-3 -5 -2 -12 3 -15 5 -3 9 1 9 9 0 17 -3 19 -12 6z"/>
<path d="M7050 5501 c-8 -6 -18 -7 -24 -4 -5 3 -6 1 -2 -5 3 -6 2 -13 -3 -17
-6 -3 -7 -13 -4 -22 4 -11 3 -14 -5 -9 -9 5 -11 -3 -8 -26 4 -43 52 -94 72
-77 7 6 19 9 26 7 16 -6 61 48 63 75 5 61 -66 108 -115 78z"/>
<path d="M1870 4719 c0 -5 5 -7 10 -4 6 3 10 8 10 11 0 2 -4 4 -10 4 -5 0 -10
-5 -10 -11z"/>
<path d="M1855 4681 c3 -2 -5 -12 -17 -23 -12 -10 -18 -21 -15 -24 3 -4 1 -16
-5 -28 -6 -11 -7 -18 -3 -14 9 9 38 -19 31 -30 -3 -5 0 -9 7 -10 7 0 27 -3 45
-6 26 -4 38 0 54 19 12 14 24 22 28 20 10 -6 5 27 -8 51 -6 12 -8 24 -4 28 3
4 -1 4 -11 0 -11 -4 -17 -1 -17 8 0 9 -14 13 -45 14 -24 0 -42 -2 -40 -5z"/>
<path d="M624 4553 c3 -3 -3 -20 -13 -37 -17 -27 -28 -96 -13 -82 3 3 12 0 20
-6 18 -16 52 -21 52 -8 0 6 6 10 14 10 7 0 16 9 19 21 3 12 10 19 15 15 5 -3
9 1 9 9 0 25 -41 65 -76 75 -18 5 -31 7 -27 3z"/>
<path d="M7465 4370 c-16 -10 -33 -15 -37 -13 -5 2 -8 -3 -8 -13 0 -12 -3 -14
-13 -6 -11 9 -13 4 -10 -24 1 -20 7 -42 14 -50 6 -8 9 -20 6 -28 -4 -9 0 -13
11 -11 9 1 20 -3 24 -9 6 -8 8 -8 8 0 0 6 13 10 30 9 17 -1 27 2 23 8 -4 6 1
8 11 4 9 -4 14 -3 11 2 -3 5 -1 12 5 16 5 3 10 17 10 30 0 13 6 26 13 29 6 3
3 4 -8 3 -16 -2 -20 4 -19 30 0 28 -2 30 -19 21 -13 -7 -17 -7 -13 0 11 19 -8
20 -39 2z"/>
<path d="M2300 3561 c0 -5 -11 -12 -25 -15 -14 -4 -24 -10 -24 -14 3 -19 -2
-25 -11 -12 -6 9 -10 10 -10 3 0 -7 9 -17 20 -23 17 -9 18 -14 9 -32 -8 -15
-8 -18 0 -14 9 6 15 -4 13 -24 0 -3 11 -5 26 -5 15 1 33 -4 41 -9 11 -8 13 -8
7 2 -4 7 -2 12 4 12 7 0 20 10 29 22 14 17 16 30 10 57 -4 19 -6 38 -3 42 2 4
-5 5 -16 2 -11 -3 -20 0 -20 6 0 6 -11 11 -25 11 -14 0 -25 -4 -25 -9z"/>
<path d="M716 3033 c-6 -14 -5 -15 5 -6 7 7 10 15 7 18 -3 3 -9 -2 -12 -12z"/>
<path d="M794 3038 c-5 -7 -21 -19 -35 -25 -24 -10 -26 -16 -24 -58 3 -58 32
-88 87 -91 21 -1 38 3 38 7 0 5 6 8 12 7 7 -2 14 8 16 22 2 14 9 28 16 32 8 6
8 8 0 8 -6 0 -10 11 -9 24 2 13 -1 29 -6 37 -5 8 -9 11 -9 6 0 -9 -62 22 -71
36 -4 5 -10 4 -15 -5z"/>
</g>
</svg>
